<svg width="343" height="78" viewBox="0 0 343 78" fill="none" xmlns="http://www.w3.org/2000/svg">
<g filter="url(#filter0_d_2018_611)">
<path d="M102.096 27.1916C100.94 27.1916 99.9971 26.8374 99.2627 26.1291C98.5231 25.4207 98.1585 24.5405 98.1585 23.4832C98.1585 22.4312 98.5231 21.5457 99.2627 20.8374C99.9971 20.1291 100.94 19.7749 102.096 19.7749C103.205 19.7749 104.122 20.1291 104.846 20.8374C105.565 21.5457 105.929 22.4312 105.929 23.4832C105.929 24.5405 105.565 25.4207 104.846 26.1291C104.122 26.8374 103.205 27.1916 102.096 27.1916ZM105.2 59.2957C105.2 62.0718 104.513 64.0666 103.138 65.2749C101.773 66.4937 99.8148 67.1082 97.2627 67.1082H94.4502V61.7332H96.2627C97.221 61.7332 97.8929 61.5457 98.2835 61.1707C98.6846 60.7957 98.8877 60.1812 98.8877 59.3374V30.1707H105.2V59.2957Z" fill="white"/>
</g>
<g filter="url(#filter1_d_2018_611)">
<path d="M134.323 30.1709V55.1917H127.968V52.0251C127.146 53.1084 126.083 53.9626 124.781 54.5876C123.474 55.1969 122.052 55.5042 120.51 55.5042C118.552 55.5042 116.812 55.098 115.302 54.2751C113.802 53.4417 112.619 52.223 111.76 50.6084C110.911 48.999 110.489 47.0824 110.489 44.8584V30.1709H116.802V43.9417C116.802 45.9313 117.291 47.4574 118.281 48.5251C119.281 49.598 120.64 50.1292 122.364 50.1292C124.114 50.1292 125.479 49.598 126.468 48.5251C127.468 47.4574 127.968 45.9313 127.968 43.9417V30.1709H134.323Z" fill="white"/>
</g>
<g filter="url(#filter2_d_2018_611)">
<path d="M153.698 29.8164C156.682 29.8164 159.094 30.7643 160.927 32.6497C162.76 34.5247 163.677 37.1445 163.677 40.5039V55.1914H157.365V41.3789C157.365 39.3945 156.865 37.8685 155.865 36.7956C154.875 35.7279 153.521 35.1914 151.802 35.1914C150.052 35.1914 148.667 35.7279 147.656 36.7956C146.656 37.8685 146.156 39.3945 146.156 41.3789V55.1914H139.844V30.1706H146.156V33.2956C147 32.2018 148.078 31.3477 149.385 30.7331C150.687 30.1237 152.125 29.8164 153.698 29.8164Z" fill="white"/>
</g>
<g filter="url(#filter3_d_2018_611)">
<path d="M178.761 29.7539C180.621 29.7539 182.261 30.1289 183.678 30.8789C185.095 31.6185 186.209 32.5664 187.032 33.7331V30.1706H193.386V55.3789C193.386 57.6966 192.918 59.7643 191.991 61.5872C191.058 63.4049 189.657 64.8477 187.782 65.9206C185.918 66.9883 183.662 67.5247 181.011 67.5247C177.47 67.5247 174.558 66.6914 172.282 65.0247C170.001 63.3685 168.72 61.1133 168.428 58.2539H174.699C175.032 59.4049 175.746 60.3164 176.845 60.9831C177.938 61.6602 179.272 62.0039 180.845 62.0039C182.678 62.0039 184.162 61.4518 185.303 60.3581C186.454 59.2591 187.032 57.5977 187.032 55.3789V51.4831C186.209 52.6654 185.084 53.6497 183.657 54.4414C182.225 55.2174 180.595 55.6081 178.761 55.6081C176.647 55.6081 174.72 55.0664 172.97 53.9831C171.23 52.8893 169.855 51.3529 168.845 49.3789C167.845 47.4102 167.345 45.1445 167.345 42.5872C167.345 40.0612 167.845 37.8164 168.845 35.8581C169.855 33.8997 171.225 32.3945 172.949 31.3372C174.683 30.2852 176.621 29.7539 178.761 29.7539ZM187.032 42.6706C187.032 41.1445 186.725 39.832 186.116 38.7331C185.517 37.6393 184.704 36.7956 183.678 36.2122C182.662 35.6185 181.563 35.3164 180.386 35.3164C179.22 35.3164 178.136 35.6029 177.136 36.1706C176.136 36.7435 175.329 37.582 174.72 38.6914C174.105 39.7904 173.803 41.0872 173.803 42.5872C173.803 44.1029 174.105 45.4206 174.72 46.5456C175.329 47.6706 176.142 48.5404 177.157 49.1497C178.168 49.7487 179.246 50.0456 180.386 50.0456C181.563 50.0456 182.662 49.7539 183.678 49.1706C184.704 48.5768 185.517 47.7279 186.116 46.6289C186.725 45.5352 187.032 44.2122 187.032 42.6706Z" fill="white"/>
</g>
<g filter="url(#filter4_d_2018_611)">
<path d="M205.176 21.7749V55.1916H198.863V21.7749H205.176Z" fill="white"/>
</g>
<g filter="url(#filter5_d_2018_611)">
<path d="M233.943 42.1289C233.943 43.0352 233.881 43.8529 233.756 44.5872H215.464C215.615 46.3945 216.245 47.8112 217.36 48.8372C218.485 49.8529 219.86 50.3581 221.485 50.3581C223.829 50.3581 225.495 49.3529 226.485 47.3372H233.318C232.594 49.7435 231.204 51.7227 229.152 53.2747C227.11 54.832 224.594 55.6081 221.61 55.6081C219.204 55.6081 217.048 55.0768 215.131 54.0039C213.214 52.9362 211.719 51.4206 210.652 49.4622C209.594 47.5039 209.068 45.2435 209.068 42.6706C209.068 40.0872 209.589 37.8164 210.631 35.8581C211.683 33.8997 213.157 32.3945 215.048 31.3372C216.949 30.2852 219.136 29.7539 221.61 29.7539C223.995 29.7539 226.131 30.2695 228.006 31.2956C229.891 32.3268 231.35 33.7852 232.381 35.6706C233.423 37.5456 233.943 39.7018 233.943 42.1289ZM227.402 40.3372C227.37 38.7122 226.782 37.4154 225.631 36.4414C224.49 35.457 223.094 34.9622 221.443 34.9622C219.87 34.9622 218.553 35.4362 217.485 36.3789C216.412 37.3268 215.761 38.6445 215.527 40.3372H227.402Z" fill="white"/>
</g>
<g filter="url(#filter6_d_2018_611)">
<path d="M251.645 55.1917L246.499 47.4209L241.937 55.1917H235.166L243.332 42.6292L235.062 30.1709H242.207L247.312 37.9001L251.916 30.1709H258.687L250.478 42.6292L258.791 55.1917H251.645Z" fill="white"/>
</g>
<g filter="url(#filter7_d_2018_611)">
<path d="M267.807 33.7747C268.624 32.6393 269.749 31.6862 271.182 30.9206C272.609 30.1445 274.244 29.7539 276.077 29.7539C278.213 29.7539 280.145 30.2852 281.869 31.3372C283.604 32.3945 284.973 33.8945 285.973 35.8372C286.984 37.7852 287.494 40.0352 287.494 42.5872C287.494 45.1445 286.984 47.4102 285.973 49.3789C284.973 51.3529 283.604 52.8893 281.869 53.9831C280.145 55.0664 278.213 55.6081 276.077 55.6081C274.244 55.6081 272.624 55.2331 271.223 54.4831C269.817 53.7227 268.682 52.7695 267.807 51.6289V67.1081H261.494V30.1706H267.807V33.7747ZM281.036 42.5872C281.036 41.0872 280.723 39.7904 280.098 38.6914C279.484 37.582 278.671 36.7435 277.661 36.1706C276.661 35.6029 275.577 35.3164 274.411 35.3164C273.255 35.3164 272.171 35.6185 271.161 36.2122C270.161 36.7956 269.348 37.6445 268.723 38.7539C268.109 39.8685 267.807 41.1706 267.807 42.6706C267.807 44.1862 268.109 45.4987 268.723 46.6081C269.348 47.7227 270.161 48.5768 271.161 49.1706C272.171 49.7539 273.255 50.0456 274.411 50.0456C275.577 50.0456 276.661 49.7487 277.661 49.1497C278.671 48.5404 279.484 47.681 280.098 46.5664C280.723 45.457 281.036 44.1289 281.036 42.5872Z" fill="white"/>
</g>
<g filter="url(#filter8_d_2018_611)">
<path d="M294.179 55.5042C293.038 55.5042 292.095 55.1501 291.345 54.4417C290.606 53.7334 290.241 52.8532 290.241 51.7959C290.241 50.7542 290.606 49.8792 291.345 49.1709C292.095 48.4626 293.038 48.1084 294.179 48.1084C295.288 48.1084 296.205 48.4626 296.929 49.1709C297.647 49.8792 298.012 50.7542 298.012 51.7959C298.012 52.8532 297.647 53.7334 296.929 54.4417C296.205 55.1501 295.288 55.5042 294.179 55.5042Z" fill="white"/>
</g>
<g filter="url(#filter9_d_2018_611)">
<path d="M305.614 27.1916C304.489 27.1916 303.556 26.8374 302.822 26.1291C302.082 25.4207 301.718 24.5405 301.718 23.4832C301.718 22.4312 302.082 21.5457 302.822 20.8374C303.556 20.1291 304.489 19.7749 305.614 19.7749C306.723 19.7749 307.645 20.1291 308.384 20.8374C309.119 21.5457 309.489 22.4312 309.489 23.4832C309.489 24.5405 309.119 25.4207 308.384 26.1291C307.645 26.8374 306.723 27.1916 305.614 27.1916ZM308.718 30.1707V55.1916H302.405V30.1707H308.718Z" fill="white"/>
</g>
<g filter="url(#filter10_d_2018_611)">
<path d="M328.09 29.8164C331.075 29.8164 333.486 30.7643 335.32 32.6497C337.153 34.5247 338.07 37.1445 338.07 40.5039V55.1914H331.757V41.3789C331.757 39.3945 331.257 37.8685 330.257 36.7956C329.268 35.7279 327.913 35.1914 326.195 35.1914C324.445 35.1914 323.059 35.7279 322.049 36.7956C321.049 37.8685 320.549 39.3945 320.549 41.3789V55.1914H314.236V30.1706H320.549V33.2956C321.393 32.2018 322.471 31.3477 323.778 30.7331C325.08 30.1237 326.518 29.8164 328.09 29.8164Z" fill="white"/>
</g>
<mask id="mask0_2018_611" style="mask-type:luminance" maskUnits="userSpaceOnUse" x="0" y="0" width="88" height="78">
<path d="M0 0H88V78H0V0Z" fill="white"/>
</mask>
<g mask="url(#mask0_2018_611)">
<path d="M87.4635 31.698C87.3593 31.3907 86.9635 31.1407 86.7187 30.8959L86.0156 30.2032L82.9895 27.2136C81.6926 25.9376 80.4166 24.6355 79.0937 23.3855C76.0885 20.5418 72.9999 17.7918 69.8906 15.0678C66.7864 12.3543 63.5885 9.59907 59.8801 7.7449C57.9739 6.79177 55.9374 6.40636 53.8281 6.2449C51.8176 6.08865 49.8385 6.51573 47.8593 6.76052C47.3697 6.82302 46.901 6.98448 46.4062 7.03657C45.9166 7.08865 45.4166 7.25532 44.9374 7.35948C44.8541 7.38032 44.4791 7.51573 44.4478 7.43761L44.2551 7.01573L43.4791 5.25011L42.0624 2.03657C41.9218 1.72407 41.6041 1.39594 41.3333 1.19282C41.1406 1.05219 40.9583 0.906358 40.7551 0.786566C40.5885 0.6824 40.2812 0.489692 40.0937 0.453233C39.0676 0.250108 38.1458 0.073025 37.0937 0.203233C36.0728 0.333441 35.1301 0.541775 34.1458 0.833441C33.2135 1.10428 32.2447 1.58865 31.4062 2.06782C30.552 2.54698 29.6197 3.07302 28.8853 3.72927C27.677 4.8074 26.3749 6.01573 25.776 7.5574C25.6249 7.93761 25.4322 8.31261 25.3853 8.71886C25.3281 9.21886 25.3228 9.64594 25.3541 10.1459C25.3749 10.5001 25.6093 10.8543 25.7603 11.1564C25.9062 11.4428 26.0728 11.8543 26.3228 12.0678C26.1666 12.1772 25.9114 12.2084 25.7343 12.2814C25.5781 12.3439 25.3385 12.4637 25.2291 12.573C25.0937 12.7084 24.776 12.7814 24.6093 12.8699C24.3645 13.0001 24.1249 13.1459 23.8801 13.2814C23.0103 13.7657 22.1197 14.2136 21.2395 14.6876L19.7395 11.5157C19.3906 10.7762 18.9895 9.97407 18.2447 9.55219C16.4687 8.54698 14.2708 8.8074 12.3697 9.28136C10.4895 9.75532 8.64576 10.672 7.08326 11.8074C6.19785 12.448 5.40097 13.1199 4.67181 13.9376C4.05722 14.6303 3.35931 15.4845 3.06243 16.3751C2.87493 16.9324 2.74472 17.4376 2.64056 18.0157C2.56243 18.4741 2.74993 19.0209 2.89576 19.4532C3.04681 19.9116 3.31764 20.323 3.57285 20.7293C3.82806 21.1355 4.02597 21.573 4.2916 21.9741C4.56243 22.3855 4.78118 22.8126 5.03639 23.2345C5.11972 23.3751 5.17701 23.3855 5.0416 23.4793L4.65097 23.7501C4.46868 23.8751 4.26556 24.0105 4.10931 24.172C3.73951 24.5418 3.39576 24.8751 3.11451 25.3178C2.8541 25.7449 2.77597 26.2449 2.67701 26.7241C2.48431 27.6772 2.57285 28.6928 2.57285 29.6616V31.7084C2.57285 32.1303 2.38535 32.3855 2.18743 32.7657C1.19264 34.6928 0.650973 36.7136 0.317639 38.8439C-0.010486 40.922 0.00514028 42.9845 0.229098 45.0678C0.328056 45.9584 0.505139 46.8699 0.749931 47.7345C0.890555 48.2293 0.979097 48.797 1.19264 49.2657L1.91139 50.8595C2.69264 52.5834 3.63535 54.2501 4.50514 55.9324C5.53118 57.922 6.56243 59.9116 7.58847 61.9012C9.47389 65.5574 11.3801 69.2189 13.2239 72.9012C13.4218 73.297 13.6197 73.6876 13.8228 74.0782L14.2187 74.8439C14.2499 74.9012 14.3385 75.0209 14.3385 75.0574C14.3385 75.3803 14.9999 75.9532 15.2291 76.1355C15.5989 76.4324 15.9635 76.698 16.3958 76.9116C17.3124 77.3647 18.3958 77.4428 19.3958 77.5314C20.2864 77.6147 21.3333 77.5834 22.2083 77.4168C26.3437 76.6199 30.2656 75.0157 33.6926 72.547C34.5156 71.9584 35.3176 71.3647 36.0989 70.7189C36.8853 70.0782 37.552 69.2918 38.2239 68.5366C38.8593 67.8334 39.4322 67.047 39.8593 66.198C40.2968 65.3282 40.7864 64.3803 40.927 63.4012C40.9999 62.9064 40.9999 62.4168 40.927 61.922C40.8697 61.547 40.7551 60.8959 40.4739 60.6147C40.1614 60.3022 40.0208 59.6824 39.7812 59.3022C39.526 58.8907 39.3593 58.4168 39.1406 57.9793C39.0364 57.7709 38.9114 57.5678 38.7916 57.3647C38.6926 57.2032 39.0416 56.9532 39.1614 56.8074C39.4583 56.4532 39.7968 56.1303 40.1041 55.7866C40.7812 55.0366 41.4583 54.3022 42.1041 53.5262C42.7343 52.7657 43.2916 51.9064 43.9895 51.2084C44.3228 50.8751 44.5937 50.4793 44.8853 50.1043C45.1614 49.7449 45.4791 49.4116 45.6978 49.0157C46.177 48.1459 46.4739 47.2397 46.552 46.2501C46.5937 45.7345 46.5885 45.2449 46.5208 44.7345C46.4895 44.4949 46.4635 44.2553 46.4218 44.0209C46.3958 43.8543 46.1978 43.2918 46.276 43.1459C46.3385 43.0314 47.6145 42.6147 47.6301 42.6407C47.8906 43.0522 48.1249 43.5157 48.4478 43.8855C48.8072 44.297 49.1614 44.698 49.5676 45.073C49.8958 45.3803 50.3072 45.8178 50.7291 45.9897C51.2395 46.1928 51.7499 46.3803 52.276 46.5574C52.7395 46.7137 53.3333 46.6928 53.8176 46.7241C54.3176 46.7553 54.8437 46.6772 55.3489 46.6772C55.8176 46.6772 56.3176 46.6512 56.7864 46.5991C57.276 46.5418 57.7656 46.5001 58.2603 46.4636C58.4947 46.448 59.2499 46.2866 59.401 46.4324L61.9687 48.948C62.2916 49.2657 62.6301 49.573 62.9583 49.8803C63.1041 50.0209 63.401 50.0991 63.5781 50.1824C63.7812 50.2762 64.0051 50.4324 64.2239 50.4845C65.2031 50.7032 66.2864 50.9949 67.302 50.9064C69.276 50.7293 71.302 50.4272 73.1406 49.6459C74.1041 49.2345 75.0676 48.8387 75.9999 48.3751C77.0156 47.8647 77.9531 47.323 78.9166 46.7189C80.5728 45.6824 82.1093 44.4897 83.4947 43.1043C84.9739 41.6303 86.3072 40.0991 87.2812 38.2345C87.5885 37.6511 87.8124 37.0991 88.0312 36.4793C88.1978 36.0001 88.3749 35.4011 88.3749 34.8855C88.3749 34.323 88.3801 33.7553 88.2239 33.2136C88.0572 32.6095 87.8072 32.2136 87.4635 31.698Z" fill="#3D553D"/>
</g>
<path d="M32.2082 12.9216C32.0155 13.0102 30.5936 13.7341 30.5311 13.6456C30.2707 13.255 29.8957 12.7394 29.479 12.4946C30.0988 11.6716 30.6873 10.906 31.4998 10.2602C31.9009 9.93727 32.2498 9.62998 32.6769 9.34873L33.9321 8.51018C34.7186 7.98414 35.63 7.57268 36.4998 7.19248C37.4373 6.78623 38.4165 6.41643 39.4217 6.20289C39.8957 6.09873 40.38 6.03102 40.8644 5.99456C41.2603 5.9581 41.9634 5.92685 42.3175 6.10393C42.755 6.31748 43.0884 6.25498 43.2811 6.7706C43.3488 6.94768 43.4373 7.14039 43.4946 7.30706C43.6092 7.62477 43.3436 7.56227 43.0623 7.61956C41.0988 8.01018 39.1405 8.53102 37.2082 9.04143C35.979 9.36435 34.729 9.67685 33.5259 10.0779C32.9842 10.255 32.3905 10.7498 32.2082 11.3175C32.1196 11.5935 32.0936 11.9216 32.1405 12.1977C32.1613 12.3331 32.1353 12.4685 32.1561 12.6039C32.1769 12.7289 32.3071 12.8748 32.2082 12.9216Z" fill="white"/>
<path d="M26.375 10.6247C26.2395 10.2028 26.026 9.69238 26.1197 9.23926C26.2343 8.66113 26.3906 8.21322 26.625 7.67155C27.0468 6.71322 27.7812 5.95801 28.4843 5.20801C29.8437 3.76009 31.6666 2.69759 33.4895 1.95801C34.4114 1.58301 35.375 1.23926 36.3593 1.10905C36.8541 1.04134 37.3437 0.942383 37.8385 0.942383C38.3645 0.942383 38.8645 1.02572 39.3854 1.11947C39.8072 1.19238 40.3177 1.36426 40.6614 1.63509C40.927 1.84863 41.3281 2.22884 41.4166 2.5778C41.5364 3.06218 41.8229 3.51009 42.0208 3.96842C42.2135 4.42155 42.4114 4.86947 42.6145 5.32259L42.6406 5.37988C42.4479 5.20801 41.7552 5.20801 41.4427 5.18197C40.9427 5.1403 40.427 5.23926 39.9322 5.30176C39.0052 5.42676 37.9843 5.67155 37.1197 6.02572C35.2239 6.80697 33.5 7.80176 31.7968 8.93717C30.7291 9.65072 29.8593 10.5101 29.0104 11.4684C28.9218 11.5622 28.8593 11.6872 28.7916 11.7913C28.6562 11.9893 28.6666 11.9424 28.4531 11.8695C28.1979 11.7861 27.875 11.7497 27.6093 11.7497C27.2291 11.7497 27.1822 11.8903 26.9583 11.5413L26.375 10.6247Z" fill="white"/>
<path d="M25.7342 13.1354C26.5415 12.8125 27.6769 12.4167 28.479 12.9896C29.1353 13.4583 29.5728 14.026 30.0415 14.6302L34.1613 19.9583L38.8071 25.9635C38.9061 26.0885 39.0103 26.2187 39.1092 26.3489C39.2394 26.5156 39.3176 26.7656 39.4113 26.9583C39.5259 27.1823 39.4478 27.4167 39.5207 27.6458C39.5676 27.7812 39.4686 28.1302 39.4321 28.276C39.3748 28.4896 39.2915 28.7864 39.1353 28.9427C38.8332 29.25 38.5467 29.4948 38.1561 29.7239C36.3228 30.7917 34.5415 31.9479 32.7446 33.0885C30.9998 34.1979 29.2186 35.2552 27.4582 36.3437C25.8019 37.375 24.1509 38.4114 22.4894 39.4375C21.5467 40.0208 20.5988 40.6094 19.6613 41.2031C19.5988 41.2448 19.0363 40.3906 18.979 40.3177L9.42692 27.151L6.74463 23.4635C10.3696 21.5104 13.9894 19.5521 17.604 17.5781C19.0519 16.7864 20.5207 16.0208 21.9686 15.2292L23.979 14.1302L24.88 13.6406C25.0519 13.5417 25.6873 13.2969 25.7342 13.1354Z" fill="white"/>
<path d="M14.6617 49.0832C14.3075 49.0884 13.8856 48.63 13.646 48.3905C13.3023 48.0415 13.0106 47.6092 12.7085 47.229C12.0575 46.4165 11.4585 45.5571 10.8387 44.7186C9.61479 43.0728 8.32833 41.4686 7.06791 39.8488C5.95333 38.4113 4.91166 37.0623 4.01583 35.4998C3.07833 33.8592 3.3752 31.5884 3.3752 29.7759C3.63041 30.1196 3.79187 30.5675 4.09395 30.8696C4.41687 31.1873 4.67729 31.6561 4.95333 32.0207C5.51583 32.7707 6.07312 33.5311 6.66166 34.2707C8.03145 35.9998 9.36999 37.755 10.7085 39.505C11.7867 40.9217 12.87 42.3332 13.9377 43.7498L14.4273 44.4061C14.495 44.4946 14.7137 44.7082 14.7137 44.8071V49.1405L14.6617 49.0832Z" fill="white"/>
<path d="M15.4115 44.75C15.9583 43.9323 16.5833 43.1927 17.4635 42.7031C17.9115 42.4531 18.3229 42.2292 18.8438 42.1615C19.1198 42.1302 19.5625 42.1875 19.75 42.0781C21 41.2969 22.2552 40.5208 23.5104 39.7448L37.6719 30.9635L39.0781 30.0938C39.2448 29.9896 39.3958 29.8542 39.5365 29.7188C39.6875 29.5833 39.7969 29.4323 39.9115 29.2656C40.026 29.0885 40.0417 28.875 40.1771 28.7031V31.0833C40.1771 31.526 40.2188 32.0521 40.0156 32.4479C39.7969 32.8906 39.5521 33.1094 39.1406 33.3698C37.4323 34.474 35.7083 35.5625 33.9948 36.6667C30.5365 38.9063 27.0521 41.1042 23.5521 43.276C22.0938 44.1771 20.599 45.0052 19.1979 45.9896C18.4635 46.5052 17.7708 47.0625 17.1094 47.6615C16.5625 48.151 16.0208 48.7552 15.3594 49.0833C15.375 47.6406 15.3958 46.1979 15.4115 44.75Z" fill="#3D553D"/>
<path d="M11.9894 16.7758C12.6405 16.4685 13.2915 16.1456 13.9582 15.854C14.7134 15.5206 15.4894 15.2862 16.2759 15.0258C16.953 14.7967 17.7394 14.7498 18.4425 14.6925C19.0728 14.6352 19.6248 14.781 20.1196 15.0623C18.3175 16.0258 16.4894 16.9477 14.6873 17.9112C12.9009 18.8644 11.1561 19.906 9.35921 20.8435C8.34879 21.3696 7.35921 21.9321 6.36963 22.4998C6.54671 21.2654 7.5988 20.031 8.52067 19.2446C9.61963 18.3019 10.7915 17.5206 12.0311 16.781C12.0571 16.7654 11.9894 16.7758 11.9894 16.7758Z" fill="white"/>
<path d="M9.09877 11.479C9.97898 11.0363 10.8748 10.604 11.8175 10.3072C12.8331 9.98944 13.8123 9.81236 14.8644 9.66132C15.7654 9.53111 16.9113 9.79673 17.7134 10.1978C18.6144 10.6457 18.8071 11.6092 19.2706 12.4217C19.5779 12.953 19.755 13.5624 20.0623 14.0988C19.7081 14.0884 19.2967 13.9426 18.9165 13.9113C18.4113 13.8749 17.9217 13.9322 17.4217 13.9999C16.4165 14.1353 15.4581 14.4426 14.4842 14.729C13.5259 15.0103 12.6196 15.5728 11.7394 16.0415C10.88 16.4947 10.0571 16.9894 9.27586 17.578C8.43731 18.2082 7.63523 18.9009 6.92169 19.6769C6.1821 20.4842 5.7446 21.3436 5.46336 22.3905L3.74981 19.4894C3.29669 18.7186 3.45815 17.6978 3.75502 16.9009C4.51023 14.8905 6.19252 13.5415 7.82794 12.2499C8.20815 11.9478 8.6769 11.729 9.09877 11.479Z" fill="white"/>
<path d="M5.94267 23.8906C6.18746 23.9323 6.52601 24.6198 6.66663 24.8073L8.49476 27.3125C10.25 29.7187 12.0052 32.125 13.7604 34.526L18.7291 41.3281C18 41.5365 17.3489 41.7344 16.7343 42.1927C16.0937 42.6719 15.5 43.1927 15.0364 43.8438L6.48434 32.6667C5.59371 31.5 4.57809 30.3594 3.92184 29.0469C3.53121 28.2656 3.30205 27.3021 3.54684 26.4427C3.81767 25.4844 4.54163 24.724 5.40101 24.2448C5.58851 24.1406 5.76559 24.0104 5.94267 23.8906Z" fill="white"/>
<path d="M39.9115 63.958C39.573 65.0153 39.1511 65.8747 38.5209 66.7913C37.9792 67.583 37.3907 68.3278 36.698 68.9892C35.2136 70.3955 33.6876 71.682 31.948 72.7601C30.1251 73.8799 28.2813 74.7653 26.2761 75.5101C25.349 75.8538 24.3959 76.1195 23.4272 76.3122C22.4167 76.5153 21.4011 76.7392 20.3647 76.7392C18.4897 76.7392 16.0782 76.5205 15.0886 74.708C14.073 72.8486 15.0001 70.8174 16.0522 69.1715C18.323 65.6247 21.9584 63.2809 25.6147 61.359C27.3959 60.4215 29.3438 59.7705 31.2969 59.3226C33.1772 58.8955 35.3751 58.5934 37.2449 59.1924C37.8751 59.3955 38.2761 59.5882 38.8282 59.9528C39.2449 60.2288 39.5522 60.682 39.8074 61.109C40.3647 62.0413 40.1042 63.0205 39.9636 64.0101C39.948 63.9892 39.9272 63.9736 39.9115 63.958Z" fill="white"/>
<path d="M42.9063 51.0624C42.9219 51.1874 42.7031 51.4791 42.6146 51.5729C42.401 51.7864 42.2188 52.026 42.026 52.2551C41.6406 52.7291 41.2083 53.1562 40.8229 53.6249C40.0104 54.6145 39.125 55.5364 38.3073 56.5208C37.3073 54.8541 36.3906 52.6666 34.3177 52.1249C33.349 51.8749 32.375 51.6301 31.3646 51.6666C30.349 51.6979 29.3229 51.7499 28.3229 51.9635C27.3385 52.1718 26.4115 52.4062 25.4583 52.7135C24.651 52.9739 23.8594 53.2812 23.0625 53.5781C26.3281 51.0208 29.5833 48.4895 32.9844 46.1093C33.7604 45.5624 34.5469 45.026 35.3958 44.5989C36.3281 44.1354 37.2865 43.8176 38.2969 43.5624C39.224 43.3333 40.3594 43.1874 41.3021 43.4166C42.1927 43.6301 43.25 44.2551 43.6146 45.1301C44.0208 46.0937 44.2396 47.0729 44.099 48.1197C43.9583 49.2031 43.5156 50.1874 42.9583 51.1197C42.9427 51.0989 42.9271 51.0833 42.9063 51.0624Z" fill="#3D553D"/>
<path d="M33.547 11.104C34.0991 10.8227 34.9845 10.6144 35.6928 10.4738C36.6147 10.2863 37.5418 9.96336 38.4428 9.70294C40.2605 9.18732 42.1355 8.81753 43.9741 8.37482C44.0157 8.59357 44.2657 8.33836 44.4168 8.30711C44.7084 8.24982 45.0001 8.19253 45.2918 8.12482C45.7918 8.01544 46.2918 7.91649 46.7918 7.8019C47.7136 7.59878 48.672 7.4269 49.6095 7.3019C51.7293 7.02065 53.8022 6.93732 55.9168 7.29149C59.8491 7.94774 63.198 10.5571 66.2032 13.0102C69.5209 15.7186 72.698 18.604 75.8803 21.4686C78.8387 24.1352 81.6251 26.9842 84.4272 29.7811L84.5782 29.9321C84.1303 29.854 83.6668 29.7186 83.2084 29.7186C82.6772 29.7186 82.1459 29.7238 81.6095 29.7394C80.547 29.7811 79.5366 30.005 78.5053 30.2602C76.5991 30.7394 74.6928 31.4321 72.9689 32.3748C69.3387 34.3696 65.9532 36.8748 63.422 40.1925C62.6668 41.1821 62.0678 42.2654 61.6043 43.4217C61.3543 44.0467 61.2501 44.6196 61.0834 45.2654C60.9428 45.8332 61.0418 46.3748 61.0418 46.9477C60.3647 46.2446 59.6928 45.5415 59.0105 44.8436C58.2605 44.0779 57.4168 43.3957 57.0105 42.3852C56.6459 41.4738 56.8439 40.4009 57.0939 39.4998C57.3439 38.5988 57.7189 37.7134 58.2241 36.9321C59.3751 35.1613 60.7397 33.6352 62.297 32.2186C63.0418 31.5415 63.8126 30.9061 64.6407 30.3332C65.4376 29.7811 66.2449 29.1769 67.1147 28.7446C67.5522 28.5259 67.9584 28.2654 68.3959 28.0467C68.7657 27.8644 69.3334 27.6613 69.5991 27.4217C69.8282 27.2134 69.8022 26.979 69.573 26.7498C69.5157 26.6925 69.3439 26.7238 69.2657 26.7342C68.922 26.7759 68.5782 26.8175 68.2397 26.854C66.2397 27.0936 64.2293 27.7498 62.3282 28.38C58.6043 29.6196 54.8439 32.0467 52.7605 35.4529C51.7189 37.1613 50.9532 38.9582 50.8386 40.9686C50.7345 42.88 51.6668 44.6457 53.0678 45.8748C52.0991 45.6821 51.1043 45.4009 50.3491 44.729C49.5939 44.0623 49.0157 43.2967 48.4584 42.4634C48.2761 42.1925 48.1043 41.7029 47.7449 41.7029C47.6459 41.7029 47.5105 41.7967 47.4064 41.8384L46.4116 42.2446C46.1199 42.3644 45.5209 42.479 45.422 42.8279C45.3126 43.2029 45.5626 43.755 45.6147 44.1457C45.7241 44.9009 45.8907 45.7759 45.7397 46.5363C45.573 47.3488 45.3178 48.1404 44.8334 48.8175C45.1564 46.854 44.8126 44.7759 43.2449 43.4269C41.8022 42.1925 39.2761 42.3071 37.5834 42.8696C36.6199 43.1925 35.672 43.479 34.7866 43.979C33.8595 44.5102 32.9845 45.1092 32.1043 45.7082C30.4689 46.8279 28.8803 48.0467 27.3074 49.2498C26.3907 49.9529 25.4689 50.6457 24.5418 51.3332C23.7918 51.8852 23.1147 52.5467 22.3907 53.1352C22.0053 53.4477 21.6147 53.755 21.2501 54.0884L20.4845 54.7863C20.3907 54.8696 20.172 55.005 20.172 55.104C20.172 55.1613 20.0626 55.2238 20.0626 55.3175C20.0626 55.4582 20.1147 55.4842 20.172 55.5571C20.2241 55.6196 20.2397 55.6925 20.3334 55.7186C20.3855 55.7342 20.6511 55.729 20.6511 55.6925C20.6511 55.5259 21.9272 55.0415 22.0991 54.9582C22.4636 54.7811 22.8282 54.6092 23.2032 54.4477C24.2918 53.979 25.3334 53.6092 26.4689 53.2707C28.323 52.7186 30.3022 52.3175 32.2501 52.5415C33.0157 52.63 33.9116 52.6977 34.5886 53.1144C34.8855 53.2967 35.3647 53.4686 35.573 53.7498C35.8178 54.0779 36.073 54.4061 36.323 54.7342C36.5522 55.0363 36.7032 55.4269 36.9116 55.755C37.1147 56.0779 37.3074 56.4113 37.5053 56.7342C37.922 57.4217 38.2657 58.1509 38.6251 58.8748C37.6251 58.4529 36.7084 58.1977 35.6199 58.1092C34.5939 58.0207 33.5678 58.1457 32.547 58.255C30.6772 58.4529 28.6876 59.0623 26.9793 59.8384C25.0314 60.7238 23.1355 61.6821 21.3647 62.8852C20.5678 63.4217 19.7605 63.9842 19.0522 64.63C18.3022 65.3175 17.4584 65.9998 16.8178 66.7863C16.1459 67.604 15.5001 68.4113 14.9741 69.3279C14.4116 70.3175 14.0834 71.2394 13.8595 72.354C12.0261 68.7863 10.2345 65.1925 8.35948 61.6457C7.38552 59.7967 6.44282 57.9373 5.47406 56.0832C4.50532 54.2342 3.4324 52.3904 2.60427 50.479C2.14594 49.4217 1.78656 48.4217 1.46365 47.3175C1.17719 46.3332 1.0574 45.3227 0.963648 44.3071C0.786564 42.3279 0.875107 40.3644 1.23969 38.4165C1.39073 37.6092 1.52615 36.8227 1.77094 36.0415C2.01573 35.2498 2.31261 34.4998 2.62511 33.7342C2.73448 34.6977 2.95844 35.6769 3.50531 36.4946C4.05219 37.3175 4.54698 38.1561 5.16677 38.9321C6.40636 40.479 7.57823 42.0832 8.77615 43.6665C9.46365 44.5675 10.1564 45.4686 10.8543 46.3644C11.4324 47.1092 12.0834 47.8384 12.6043 48.6248C13.0834 49.3436 13.9324 50.1561 14.8647 50.1561C15.8491 50.1561 16.5886 49.4634 17.2709 48.8488C18.8022 47.4738 20.448 46.229 22.2553 45.2394C23.9845 44.2967 25.6511 43.1873 27.3022 42.1196C30.8178 39.8488 34.3647 37.6196 37.9064 35.3904C38.6928 34.8904 39.5678 34.4477 40.2293 33.7863C40.948 33.0727 40.9793 32.1873 40.9793 31.2238V29.38C40.9793 28.9738 41.047 28.4842 40.9168 28.0936C40.7605 27.6144 40.6043 27.1509 40.3439 26.7134C40.2241 26.5154 40.0678 26.3488 39.9428 26.1561C39.8543 26.0311 39.8386 25.9113 39.7501 25.8175C39.1824 25.1977 38.5991 24.3227 38.0157 23.604C37.3907 22.8384 36.8022 22.0467 36.198 21.2707C34.8803 19.5779 33.5834 17.88 32.2657 16.1925C31.8074 15.6092 31.3543 15.0259 30.922 14.4217L32.5157 13.6977C32.7137 13.6092 32.6824 13.6144 32.8074 13.7707C33.2241 14.3175 33.6407 14.8644 34.0626 15.4061L39.073 21.9373L44.1824 28.5988C44.9428 29.5884 45.7084 30.8696 46.7032 31.6457C47.0626 31.9269 47.5366 32.2863 48.0001 32.2863C48.2345 32.2863 48.5001 32.3852 48.7241 32.4634C48.9845 32.5467 49.1355 32.7082 49.3803 32.8227C48.6251 32.7134 47.8439 32.7654 47.1043 32.9477C46.4272 33.1196 45.6928 33.354 45.1043 33.7498C43.8491 34.5832 42.5887 35.5363 42.1564 37.0467C42.0678 36.8175 41.9949 36.7863 41.9949 36.4894C41.9949 36.1196 41.9637 35.7394 42.0522 35.3904C42.1355 35.0519 42.4272 34.854 42.4272 34.5102C42.4272 34.1873 41.9845 34.1717 41.7814 34.2654C41.5939 34.3592 41.3803 34.5154 41.2136 34.6404C41.0314 34.7759 40.8126 34.8488 40.6355 34.979C40.2501 35.2707 39.797 35.5311 39.3595 35.7446C38.4636 36.1925 37.5886 36.7446 36.7501 37.3019C36.0157 37.7915 35.0782 38.2967 34.4793 38.8957C34.2762 39.0988 34.3647 39.3957 34.6147 39.5102C34.9376 39.6561 35.4324 39.3019 35.7605 39.1717C37.6147 38.4061 39.5522 38.0675 41.547 38.0675C41.7501 38.0675 42.0522 38.0311 42.0522 38.2498C42.0522 38.38 42.1511 38.5936 42.2084 38.7082C42.3959 39.0623 42.6303 39.3592 42.9897 39.5988C43.7918 40.1404 44.8959 40.0936 45.8282 39.9946C46.7084 39.8957 47.6616 39.4165 48.4064 38.9582C49.2762 38.4217 50.0834 37.8123 50.6407 36.9373C51.073 36.2602 51.6407 35.1925 51.2761 34.3696C51.2084 34.2082 51.0366 33.9998 51.1251 33.8279C51.2449 33.5884 51.3647 33.3748 51.5105 33.1509C51.7762 32.7602 52.0262 32.4217 52.3595 32.0884C53.0418 31.4113 53.7137 30.7863 54.4793 30.2134C54.8178 29.9582 55.172 29.7238 55.5262 29.4998C55.672 29.4061 55.9532 29.2915 56.0678 29.1873C56.1512 29.104 56.172 28.9686 56.2241 28.8644C56.1512 28.7238 56.1303 28.6352 56.0105 28.5467C55.8334 28.4113 55.8074 28.4738 55.6147 28.4998C55.073 28.5779 54.5157 28.7915 53.9949 28.9686C52.9272 29.3227 51.8699 29.6769 50.823 30.0936C50.7501 29.8957 50.0886 30.1665 49.9428 30.1977C49.5626 30.2707 48.9741 30.1821 48.6407 29.9842C48.4428 29.8644 48.2084 29.7811 48.0418 29.6144C47.9584 29.5311 47.9324 29.4113 47.8699 29.3332L47.5939 28.979L43.7709 24.0727L34.1043 11.6717C33.9897 11.5207 33.7761 11.0988 33.547 11.104Z" fill="white"/>
<path d="M33.1147 11.7448C35.7866 15.1771 38.4585 18.6042 41.1303 22.0313L47.2397 29.8802V29.8281H47.1876C47.5262 30.4063 48.2137 30.7552 48.8439 30.8958C48.6408 31 48.448 31.1094 48.2553 31.2188C48.0105 31.3594 47.8908 31.474 47.6408 31.3073C47.2605 31.0573 46.948 30.7656 46.6251 30.4427C45.9741 29.7969 45.4637 28.9323 44.896 28.2083C43.6095 26.5521 42.3699 24.8646 41.0783 23.2188C39.8126 21.6146 38.5991 19.974 37.3543 18.3594C36.6824 17.4896 36.0158 16.625 35.3439 15.7604C34.7241 14.9688 34.0158 14.1927 33.4585 13.3542C33.3022 13.1198 33.0105 12.8698 33.0105 12.6042C33.0105 12.2917 32.8595 11.9271 33.0626 11.6406L33.1147 11.7448Z" fill="#3D553D"/>
<path d="M53.4425 29.9893C52.9165 30.4424 52.38 30.8903 51.8853 31.3851C51.6665 31.6038 51.505 31.8747 51.2915 32.0882C51.0311 32.3486 50.8905 32.6455 50.6613 32.932C50.5415 32.6716 50.1873 32.4163 49.9686 32.234C49.703 32.0153 49.3592 31.8486 49.0571 31.6976C50.505 31.0778 51.9686 30.5413 53.4425 29.9893Z" fill="#3D553D"/>
<path d="M41.1408 36.2446C41.2502 36.3592 41.1772 36.578 41.1929 36.729C41.2189 36.9165 41.271 37.0988 41.3543 37.2603C40.1043 37.2603 38.8804 37.3853 37.6616 37.6925C38.2866 37.38 38.8387 36.9165 39.4637 36.604C39.771 36.4478 40.0366 36.2655 40.3387 36.1144C40.5627 35.9998 41.0522 35.7967 41.1929 35.604C41.1929 35.7498 41.2502 36.203 41.1408 36.2446Z" fill="#3D553D"/>
<path d="M55.4794 45.8229C55.2971 46 54.7398 45.8229 54.5939 45.8229C54.2971 45.8229 53.6044 45.2865 53.4012 45.0833C52.6669 44.349 52.1512 43.5208 51.8491 42.526C51.5419 41.4896 51.62 40.4948 51.8908 39.4583C52.1356 38.5417 52.4689 37.5313 52.9689 36.7188C54.021 35 55.2866 33.4062 56.8804 32.151C58.5106 30.8698 60.4273 30.0208 62.3439 29.25C63.8075 28.6667 65.3439 28.3177 66.87 27.9531C66.0991 28.3385 65.3856 28.8385 64.6825 29.3333C63.8075 29.9479 62.9689 30.5729 62.1616 31.276C60.5991 32.6302 59.1512 34.0417 57.9898 35.7656C56.9637 37.2969 56.0106 39.2135 56.0106 41.0938C56.0106 42.026 56.2762 42.875 56.7919 43.6458C56.9169 43.8385 57.0366 43.8958 57.1877 44.0573C57.3335 44.2135 57.4325 44.4062 57.5835 44.5625L58.6356 45.6094C58.1512 45.7552 57.5835 45.6563 57.0835 45.7396C56.8648 45.776 55.5158 45.9271 55.4794 45.8229Z" fill="#3D553D"/>
<mask id="mask1_2018_611" style="mask-type:luminance" maskUnits="userSpaceOnUse" x="60" y="30" width="28" height="21">
<path d="M60.5522 30.1562H88.0002V50.1563H60.5522V30.1562Z" fill="white"/>
</mask>
<g mask="url(#mask1_2018_611)">
<path d="M87.464 35.1771C87.3859 35.6875 87.3286 36.1406 87.1254 36.6146C86.9119 37.125 86.6723 37.6146 86.4275 38.1094C86.0161 38.9271 85.4484 39.8021 84.839 40.4792C83.4692 42.0052 82.0734 43.5 80.4015 44.7031C79.5161 45.3385 78.6306 45.9375 77.7088 46.5208C76.8442 47.0677 75.9327 47.4948 75.0213 47.9531C73.1827 48.875 71.2192 49.4167 69.2296 49.8854C68.2348 50.1198 67.0838 50.0469 66.0681 50.0469C65.589 50.0469 65.0681 49.8438 64.5994 49.7344C64.2556 49.6563 63.6515 49.4323 63.3911 49.1927C62.99 48.8177 62.6046 48.4948 62.3234 48.026C62.0942 47.6458 61.8442 47.1667 61.8442 46.7083C61.8442 46.2448 61.8025 45.849 61.8963 45.3854C62.0109 44.8594 62.115 44.3698 62.2973 43.8698C62.964 42.0625 64.1931 40.3125 65.5525 38.9531C67.0421 37.4635 68.5838 36.0729 70.3494 34.9063C73.6879 32.7031 77.6619 30.6927 81.7348 30.5521C83.1984 30.5052 85.089 30.5 86.2088 31.6198C86.7192 32.1302 87.0838 32.4323 87.3754 33.1563C87.4952 33.4531 87.8077 35.0469 87.464 35.1771Z" fill="white"/>
</g>
<path d="M15.7342 25.1718C16.9009 26.927 18.2602 28.5729 19.505 30.2708L23.0311 35.0729C23.1769 35.276 23.3279 35.4739 23.4634 35.677C23.5936 35.8697 23.7081 35.8749 23.8384 36.0052C24.0206 36.1874 24.6769 35.6302 24.8071 35.5416C25.6977 34.9687 26.5936 34.4062 27.4946 33.8437C29.2446 32.7499 30.9894 31.651 32.7238 30.5364C34.3904 29.4583 36.0779 28.3437 37.8227 27.4218C38.0207 27.3177 38.0936 27.2239 38.0936 26.9635C38.0936 26.6927 37.6144 26.2395 37.4217 25.9791C36.7863 25.1145 36.1196 24.276 35.4634 23.427C34.2134 21.802 32.979 20.177 31.7602 18.5312C31.1821 17.7499 30.5675 16.9999 29.9634 16.2395C29.63 15.8281 29.3331 15.5677 28.9009 15.2604C28.4425 14.9427 27.9998 14.7864 27.4581 14.651C25.3748 14.1302 23.7238 15.3072 21.979 16.2239C20.1352 17.1927 18.38 18.3333 16.5363 19.2916C15.6717 19.7343 15.0259 20.552 14.7759 21.5572C14.6144 22.2187 14.7238 22.776 14.8175 23.4427C14.8384 23.5677 14.9529 23.677 14.9894 23.802C15.0415 23.9791 15.0727 24.1302 15.1717 24.2812C15.3696 24.5781 15.5571 24.8697 15.7342 25.1718Z" fill="#3D553D"/>
<path d="M37.7708 27.3643C37.7552 27.4059 37.7865 27.4372 37.7188 27.4215C37.7448 27.4268 37.7969 27.4268 37.8229 27.4215L37.7708 27.3643Z" fill="white"/>
<path d="M24.6665 34.1093C24.8436 33.6561 25.0207 33.2447 25.3123 32.8541C25.6248 32.4374 25.9894 32.2707 26.4009 31.9634C27.2342 31.3384 28.2342 30.8645 29.13 30.328C29.9478 29.8384 30.7603 29.3332 31.5675 28.828C32.4478 28.2864 33.3175 27.6718 34.2394 27.2082C35.0884 26.7812 35.9582 26.5416 36.8592 26.9947C35.2811 28.1197 33.5415 29.0468 31.9269 30.1249C30.2238 31.2603 28.479 32.3437 26.7394 33.4322L24.5571 34.802C24.5884 34.6718 24.7707 34.1249 24.6665 34.1093Z" fill="#3D553D"/>
<path d="M23.8073 34.8018L16.375 24.6924C15.7031 23.781 15.4167 22.7289 15.5729 21.6976C15.5469 22.0206 15.9427 22.4372 16.1198 22.7029C16.3646 23.0726 16.6615 23.4112 16.9167 23.7758C17.4948 24.5831 18.0781 25.3799 18.6511 26.1924C19.849 27.9008 21.099 29.5726 22.3125 31.2706L22.7917 31.9424C22.8698 32.0518 22.9948 32.3956 23.1406 32.3956C23.3958 32.3956 23.6927 32.5101 23.7552 32.1247C23.8333 31.682 23.1563 31.0518 22.9219 30.7237L17.9323 23.8279L16.599 21.9737C16.3646 21.656 16.2656 21.3018 16.2656 20.906C16.2656 20.7237 16.2604 20.4997 16.375 20.3591C16.4427 20.2706 16.6354 20.2081 16.724 20.1195C16.8854 19.9581 17.1615 19.8591 17.3594 19.7497L18.9323 18.8591L22.7917 16.6768C24.2552 15.8487 26.0313 14.8122 27.7552 15.5779C28.1719 15.7654 28.6771 15.9893 28.9844 16.3383C29.2969 16.6976 29.599 17.0674 29.8802 17.4529C30.5261 18.3331 31.1979 19.1872 31.8594 20.057C33.3646 22.031 34.8698 24.0049 36.3802 25.9737C35.4792 25.6976 34.4844 26.1456 33.7083 26.5622C32.8073 27.0466 31.9688 27.656 31.0833 28.1664C30.2292 28.6664 29.4115 29.2029 28.5625 29.7133C27.6771 30.2445 26.7917 30.8747 25.875 31.3383C24.5261 32.0101 23.9896 33.4372 23.8125 34.8435C23.8073 34.8851 23.8073 34.8018 23.8073 34.8018Z" fill="white"/>
<path d="M24.828 63.4738C23.9686 63.979 23.13 64.4946 22.3123 65.0675C21.4113 65.6977 20.604 66.4165 19.7811 67.1456C19.0363 67.8071 18.4269 68.6248 17.8488 69.4321C17.328 70.1665 16.854 71.1717 16.854 72.0883C16.854 72.9998 17.3905 73.9113 18.2134 74.3175C19.104 74.7602 20.2186 74.8331 21.203 74.7758C23.2394 74.6665 25.2186 73.9581 27.0988 73.2185C28.953 72.4946 30.755 71.4217 32.3592 70.2394C34.0207 69.0206 35.5311 67.5831 36.6769 65.8644C37.6769 64.3644 38.0623 61.8644 35.9425 61.1196C35.4165 60.9321 34.9894 60.7967 34.4373 60.7446C33.8905 60.6925 33.3696 60.7133 32.8175 60.7394C31.8175 60.781 30.7759 61.13 29.8071 61.3748C28.0571 61.8123 26.4165 62.6508 24.828 63.4738Z" fill="#3D553D"/>
<path d="M36.5939 64.1146C35.8544 66.0417 34.4481 67.4948 32.8752 68.7917C32.0523 69.4688 31.1825 70.0573 30.2919 70.6406C29.5002 71.1511 28.5992 71.6979 27.7294 72.0521C26.7189 72.4636 25.7242 72.8906 24.6877 73.2396C23.7137 73.5625 22.7242 73.7656 21.7137 73.9323C20.7971 74.0886 19.7033 73.9948 18.8231 73.7031C17.8752 73.3906 17.5367 72.4375 17.7658 71.5521C18.2554 69.6667 19.8231 68.0886 21.2919 66.875C22.9481 65.5104 24.7554 64.3854 26.6877 63.4531C27.5887 63.0156 28.521 62.6511 29.4689 62.3125C30.4481 61.9636 31.4794 61.7917 32.5054 61.6146C33.5419 61.4375 34.4794 61.5365 35.4794 61.8021C36.4481 62.0625 36.9377 63.0781 36.6356 64L36.5939 64.1146Z" fill="white"/>
<path d="M71.3646 36.1407C69.6563 37.3595 68.1198 38.6824 66.6875 40.2188C65.4219 41.5678 64.25 43.474 64.25 45.3699C64.25 45.7918 64.401 46.3959 64.7031 46.7032C65.1198 47.1199 65.4375 47.3751 65.9792 47.5834C66.9271 47.9376 67.8594 47.9376 68.849 47.8178C70.8542 47.5782 72.8021 46.9272 74.5885 45.974C75.5885 45.4376 76.5573 44.8803 77.526 44.2865C78.3646 43.7761 79.1406 43.1355 79.9219 42.547C80.2917 42.2709 80.6094 41.9115 80.9427 41.5938C81.2865 41.2709 81.6615 40.9584 81.974 40.599C82.6719 39.8074 83.3438 39.0313 83.8802 38.1199C84.8177 36.5365 85.6406 34.172 83.724 32.9324C82.8229 32.349 81.6771 32.3959 80.6563 32.3959C80.224 32.3959 79.6927 32.5053 79.276 32.6095C78.7917 32.7345 78.2865 32.8282 77.8125 32.9897C76.724 33.3647 75.5677 33.7136 74.5625 34.2813C74.0417 34.573 73.5156 34.8543 73.0052 35.1668L72.0156 35.7709C71.8385 35.8803 71.5781 36.1251 71.3646 36.1407Z" fill="#3D553D"/>
<path d="M84.0423 35.5521C83.584 37.5365 82.2923 39.1927 80.8288 40.5677C80.0371 41.3073 79.2507 42.0261 78.4017 42.6979C77.5944 43.3333 76.6882 43.8646 75.8236 44.4167C74.1048 45.5261 72.0684 46.1875 70.1361 46.8021C69.2246 47.0938 68.1361 47.1563 67.1934 47.0521C66.7142 47 66.1882 46.9115 65.8027 46.6042C65.4486 46.3177 65.0527 45.9011 65.0527 45.4063C65.0527 43.4479 66.4798 41.5625 67.8079 40.2344C69.2246 38.8125 70.7142 37.5625 72.4017 36.4792C74.0736 35.4011 75.9225 34.3594 77.8496 33.8229C78.8965 33.5261 79.9121 33.2708 81.0059 33.2188C81.8913 33.1771 83.2298 33.2552 83.7767 34.0781C84.0215 34.4531 84.2507 35.1146 84.0423 35.5521Z" fill="white"/>
<path d="M17.6042 71.4477C19.5833 71.8696 21.6094 71.4842 23.5156 70.8488C25.4219 70.2081 27.375 69.354 29.0573 68.2342C30.4271 67.3175 31.7135 66.3488 32.9115 65.2238C34.0729 64.1352 34.9531 62.8748 35.526 61.3904C31.5885 60.7863 27.349 62.1821 24.0833 64.3592C22.6042 65.3488 21.1302 66.3279 19.7448 67.4529C18.4635 68.4946 17.6302 69.8331 17.2812 71.4477H17.6042Z" fill="#3D553D"/>
<path d="M64.89 44.8594C66.8275 45.1042 69.0202 44.625 70.7858 43.7865C72.6973 42.875 74.5983 41.9479 76.291 40.6563C78.9004 38.6719 81.7181 36.224 82.4368 32.875C80.3848 32.875 78.3848 33.2083 76.4473 33.8906C74.4212 34.6094 72.6243 35.7292 70.8848 36.9688C69.5098 37.9531 68.1348 39.1042 66.9368 40.2969C66.3327 40.901 65.6296 41.5781 65.265 42.3594C64.8796 43.1979 64.64 43.9375 64.5723 44.8594H64.89Z" fill="#3D553D"/>
<path d="M18.4582 31.5365C18.2655 31.1406 17.6613 30.9531 17.2551 30.9531C16.7499 30.9531 16.4321 31.1615 16.078 31.5104C15.7811 31.8073 15.6405 32.3958 15.7394 32.8021C15.8332 33.1771 16.0936 33.4687 16.3176 33.776L17.5728 35.5C17.8124 35.8333 18.0363 36.1979 18.328 36.4896C18.9842 37.1406 20.2967 37.1198 20.7342 36.2448C20.9426 35.8281 21.0311 35.4792 20.9217 35.0156C20.8332 34.6563 20.5988 34.4062 20.3801 34.1094L19.203 32.526C18.9634 32.2031 18.7446 31.8229 18.4582 31.5365Z" fill="#3D553D"/>
<path d="M20.5988 35.552C20.7082 35.7031 20.5363 35.9427 20.4686 36.0833C20.3748 36.2708 20.1717 36.3541 20.0363 36.4895C19.9321 36.5937 19.6613 36.6197 19.505 36.6197C19.2654 36.6197 19.0936 36.6093 18.8905 36.5156C18.578 36.3697 18.3905 36.0468 18.1873 35.776L16.9009 34.052C16.3852 33.3593 15.6977 32.6614 16.2811 31.7812C16.7863 31.0312 17.8175 31.177 18.3071 31.8385L19.9998 34.1041C20.3852 34.625 20.6509 34.9479 20.6509 35.6041L20.5988 35.552Z" fill="white"/>
<path d="M15.5158 27.4737L13.4897 24.7341C13.2449 24.406 13.0262 24.1612 12.6095 24.0571C12.2397 23.9633 11.6199 23.88 11.3178 24.1821C10.9897 24.5102 10.6616 24.781 10.5991 25.281C10.5366 25.7341 10.672 26.0675 10.9324 26.4269L12.9949 29.2602C13.5053 29.9581 14.3543 30.1144 15.0887 29.7446C15.4012 29.5935 15.8387 29.0935 15.8387 28.7029C15.8387 28.3071 15.8647 27.7498 15.5158 27.4737Z" fill="#3D553D"/>
<path d="M15.5158 28.5989C15.5679 28.9791 15.1252 29.3802 14.8231 29.5312C14.4794 29.7031 14.0002 29.6354 13.6981 29.4531C13.3752 29.2552 13.1981 28.9635 12.969 28.651L11.6773 26.9062C11.4325 26.5781 11.1721 26.2656 10.9898 25.901C10.7763 25.4791 10.9898 25.0156 11.2242 24.6614C11.4898 24.2656 12.0419 24.3177 12.4273 24.3177C12.7919 24.3177 13.0783 24.7031 13.2762 24.9687L14.9533 27.2135C15.094 27.4062 15.2398 27.5885 15.3596 27.7969C15.5002 28.0521 15.5158 28.2812 15.5158 28.5989Z" fill="white"/>
<path d="M52.4841 27.3122L50.88 27.9372C50.6769 28.0153 50.3696 28.2705 50.2133 28.0726L48.5623 26.0465L43.1196 19.3434L41.9425 17.8955L43.5727 17.2965C43.656 17.2653 43.9737 17.208 44.031 17.1507C44.0883 17.0882 44.0675 16.8799 44.005 16.8799C43.5623 16.8799 43.0727 17.1455 42.656 17.2861L41.7758 17.5778C41.6769 17.6091 41.5623 17.7393 41.5414 17.7393C41.4373 17.7393 41.6508 17.9945 41.7029 18.0622L42.3644 18.8851L44.8019 21.9007L49.7133 27.984L50.0727 28.432C50.2394 28.6403 50.88 28.2809 51.0466 28.2236C51.2081 28.1663 52.5883 27.7966 52.5883 27.6611C52.5883 27.5986 52.6977 27.583 52.6977 27.4476C52.6977 27.3747 52.5206 27.3643 52.4841 27.3122Z" fill="#3D553D"/>
<path d="M56.7082 25.7604L55.0572 26.3229C54.8176 26.4062 54.5936 26.6041 54.4218 26.401L52.6978 24.3177L47.203 17.7031L46.1718 16.4531L47.8124 15.9843C47.8801 15.9635 48.1093 15.8645 48.1197 15.8645C48.2395 15.8645 48.0728 15.6197 47.9895 15.5989C47.8645 15.5677 47.6457 15.6874 47.5311 15.7187L46.4322 16.052C46.1509 16.1354 45.5832 16.1927 45.7447 16.5052C45.8124 16.6458 45.9686 16.776 46.0624 16.8958L46.9218 17.9218L49.5989 21.1302L54.0572 26.4739L54.3541 26.8333C54.4843 26.9895 54.9843 26.7239 55.177 26.6614L56.8332 26.0937C57.0832 26.0104 56.927 25.7708 56.7082 25.7604Z" fill="#3D553D"/>
<path d="M60.9842 24.208L59.3384 24.6924C59.0936 24.7653 58.8696 24.9424 58.6978 24.7393L56.9217 22.682C55.0571 20.5205 53.1926 18.3643 51.328 16.2028L50.3436 15.0622L52.0155 14.708C52.2655 14.6559 52.3019 14.3122 52.0103 14.3799L50.1821 14.8018C49.9634 14.8486 49.7394 14.9163 49.9165 15.1195L53.9998 19.8278L58.4165 24.9268C58.4478 24.9632 58.6092 25.2184 58.6353 25.2288C58.8801 25.3434 59.5051 25.0101 59.7238 24.9476C60.1353 24.8226 60.6873 24.5309 61.1196 24.5309C61.2394 24.5309 61.2603 24.1663 60.9842 24.208Z" fill="#3D553D"/>
<path d="M65.2657 22.6038C65.2085 22.8226 64.0157 22.9945 63.7762 23.057C63.573 23.1143 63.1668 23.3486 63.0001 23.1663L61.2501 21.208L55.5262 14.807L54.5157 13.6715L56.146 13.4111C56.4064 13.3695 56.3491 13.083 56.146 13.083C55.6095 13.083 55.021 13.2653 54.4949 13.3538C54.3387 13.3799 54.2189 13.4007 54.1407 13.458C54.1407 13.458 53.922 13.6715 54.0574 13.6715C54.1616 13.6715 54.3387 13.958 54.4012 14.0257L55.2866 15.0153L58.0678 18.1403L62.5939 23.2184C62.672 23.307 62.7605 23.4476 62.8595 23.5153C63.0574 23.6455 63.5262 23.432 63.797 23.359C64.3178 23.2132 64.8439 23.0726 65.3699 22.9268C65.6303 22.8591 65.3803 22.6768 65.3178 22.6038H65.2657C65.2657 22.682 65.2501 22.6403 65.2657 22.6038Z" fill="#3D553D"/>
<path d="M69.4947 21.4842L67.7864 21.8539C67.5103 21.9164 67.3697 22.0362 67.1822 21.8383L65.2708 19.7706L59.5208 13.5571L58.6874 12.656C59.1666 12.6248 59.7812 12.6925 60.2395 12.5467C60.5051 12.4633 60.401 12.156 60.1093 12.1873L58.3697 12.3904C58.1822 12.4112 58.1614 12.5519 58.2812 12.6769L62.7916 17.5467L66.9531 22.031C66.9791 22.0623 67.1614 22.2862 67.1666 22.2862C67.5312 22.2862 67.9062 22.1717 68.2656 22.1039L69.1301 21.9425C69.2551 21.9217 69.4947 21.9269 69.5989 21.8592C69.8281 21.7133 69.6718 21.5519 69.4947 21.4842Z" fill="#3D553D"/>
<path d="M73.771 20.8383L72.0679 21.0467C71.7918 21.0831 71.646 21.1769 71.4585 20.9842L69.5262 18.9686L63.6095 12.8019C63.4585 12.6456 62.7345 11.6196 62.4324 11.8019C62.1616 11.9581 63.1043 12.7654 63.2241 12.8904C65.1668 14.9165 67.1095 16.9373 69.0522 18.9633L71.4116 21.4217C71.4949 21.5102 71.6408 21.4686 71.8022 21.4529L73.2554 21.2811C73.4637 21.255 73.8074 21.2863 73.9585 21.1352C74.1043 20.9842 73.8699 20.8748 73.771 20.8383Z" fill="#3D553D"/>
<path d="M51.7863 35.1248C51.4165 34.328 50.3331 33.9478 49.5102 33.9478C48.505 33.9478 47.505 34.1405 46.5831 34.5519C44.854 35.3228 42.9685 36.854 42.7706 38.8592C42.6665 39.8696 43.4529 40.8436 43.9113 41.6821C44.3383 42.453 45.2029 42.88 46.0883 42.88C46.5779 42.88 47.0363 42.9217 47.5258 42.8071C47.9998 42.703 48.4633 42.5675 48.906 42.3696C49.8435 41.953 50.7081 41.4946 51.4425 40.7603C52.1821 40.0259 52.9633 39.1248 52.9633 38.0207C52.9633 37.5311 52.8956 37.104 52.6613 36.6717C52.4008 36.1978 52.1717 35.5103 51.7863 35.1248Z" fill="#3D553D"/>
<path d="M51.0367 36.5154C49.1356 36.13 47.1773 37.0675 45.7815 38.3123C45.1512 38.8696 44.3492 39.8279 44.4794 40.7289C44.6356 41.8227 45.5054 42.0779 46.5002 42.0779C48.1617 42.0779 49.6773 41.2602 50.896 40.1768C51.3856 39.7393 52.021 38.9268 52.12 38.2602C52.1721 37.8643 52.2346 37.3904 51.9221 37.0779C51.6877 36.8435 51.4065 36.5466 51.0367 36.5154Z" fill="white"/>
<path d="M50.8227 35.1248C50.7082 34.7654 50.2446 34.5727 49.9165 34.4789C49.4634 34.3539 48.9946 34.3435 48.5207 34.3748C47.5936 34.4321 46.755 34.8539 45.953 35.2862C45.0832 35.7654 44.3488 36.38 43.7967 37.2133C43.5467 37.5883 43.4113 38.0414 43.2863 38.4737C43.1717 38.8696 43.5415 39.4477 43.7082 39.7758C44.3488 38.281 45.3696 37.3279 46.7602 36.5154C47.4217 36.1248 48.0623 35.88 48.8175 35.7133C49.6248 35.531 50.328 35.5414 51.1457 35.656C51.0727 35.5154 50.9738 35.156 50.8227 35.1248Z" fill="white"/>
<defs>
<filter id="filter0_d_2018_611" x="90.4502" y="19.7749" width="19.4795" height="55.3335" filterUnits="userSpaceOnUse" color-interpolation-filters="sRGB">
<feFlood flood-opacity="0" result="BackgroundImageFix"/>
<feColorMatrix in="SourceAlpha" type="matrix" values="0 0 0 0 0 0 0 0 0 0 0 0 0 0 0 0 0 0 127 0" result="hardAlpha"/>
<feOffset dy="4"/>
<feGaussianBlur stdDeviation="2"/>
<feComposite in2="hardAlpha" operator="out"/>
<feColorMatrix type="matrix" values="0 0 0 0 0 0 0 0 0 0 0 0 0 0 0 0 0 0 0.25 0"/>
<feBlend mode="normal" in2="BackgroundImageFix" result="effect1_dropShadow_2018_611"/>
<feBlend mode="normal" in="SourceGraphic" in2="effect1_dropShadow_2018_611" result="shape"/>
</filter>
<filter id="filter1_d_2018_611" x="106.489" y="30.1709" width="31.833" height="33.3335" filterUnits="userSpaceOnUse" color-interpolation-filters="sRGB">
<feFlood flood-opacity="0" result="BackgroundImageFix"/>
<feColorMatrix in="SourceAlpha" type="matrix" values="0 0 0 0 0 0 0 0 0 0 0 0 0 0 0 0 0 0 127 0" result="hardAlpha"/>
<feOffset dy="4"/>
<feGaussianBlur stdDeviation="2"/>
<feComposite in2="hardAlpha" operator="out"/>
<feColorMatrix type="matrix" values="0 0 0 0 0 0 0 0 0 0 0 0 0 0 0 0 0 0 0.25 0"/>
<feBlend mode="normal" in2="BackgroundImageFix" result="effect1_dropShadow_2018_611"/>
<feBlend mode="normal" in="SourceGraphic" in2="effect1_dropShadow_2018_611" result="shape"/>
</filter>
<filter id="filter2_d_2018_611" x="135.844" y="29.8164" width="31.833" height="33.375" filterUnits="userSpaceOnUse" color-interpolation-filters="sRGB">
<feFlood flood-opacity="0" result="BackgroundImageFix"/>
<feColorMatrix in="SourceAlpha" type="matrix" values="0 0 0 0 0 0 0 0 0 0 0 0 0 0 0 0 0 0 127 0" result="hardAlpha"/>
<feOffset dy="4"/>
<feGaussianBlur stdDeviation="2"/>
<feComposite in2="hardAlpha" operator="out"/>
<feColorMatrix type="matrix" values="0 0 0 0 0 0 0 0 0 0 0 0 0 0 0 0 0 0 0.25 0"/>
<feBlend mode="normal" in2="BackgroundImageFix" result="effect1_dropShadow_2018_611"/>
<feBlend mode="normal" in="SourceGraphic" in2="effect1_dropShadow_2018_611" result="shape"/>
</filter>
<filter id="filter3_d_2018_611" x="163.345" y="29.7539" width="34.042" height="45.771" filterUnits="userSpaceOnUse" color-interpolation-filters="sRGB">
<feFlood flood-opacity="0" result="BackgroundImageFix"/>
<feColorMatrix in="SourceAlpha" type="matrix" values="0 0 0 0 0 0 0 0 0 0 0 0 0 0 0 0 0 0 127 0" result="hardAlpha"/>
<feOffset dy="4"/>
<feGaussianBlur stdDeviation="2"/>
<feComposite in2="hardAlpha" operator="out"/>
<feColorMatrix type="matrix" values="0 0 0 0 0 0 0 0 0 0 0 0 0 0 0 0 0 0 0.25 0"/>
<feBlend mode="normal" in2="BackgroundImageFix" result="effect1_dropShadow_2018_611"/>
<feBlend mode="normal" in="SourceGraphic" in2="effect1_dropShadow_2018_611" result="shape"/>
</filter>
<filter id="filter4_d_2018_611" x="194.863" y="21.7749" width="14.3125" height="41.4165" filterUnits="userSpaceOnUse" color-interpolation-filters="sRGB">
<feFlood flood-opacity="0" result="BackgroundImageFix"/>
<feColorMatrix in="SourceAlpha" type="matrix" values="0 0 0 0 0 0 0 0 0 0 0 0 0 0 0 0 0 0 127 0" result="hardAlpha"/>
<feOffset dy="4"/>
<feGaussianBlur stdDeviation="2"/>
<feComposite in2="hardAlpha" operator="out"/>
<feColorMatrix type="matrix" values="0 0 0 0 0 0 0 0 0 0 0 0 0 0 0 0 0 0 0.25 0"/>
<feBlend mode="normal" in2="BackgroundImageFix" result="effect1_dropShadow_2018_611"/>
<feBlend mode="normal" in="SourceGraphic" in2="effect1_dropShadow_2018_611" result="shape"/>
</filter>
<filter id="filter5_d_2018_611" x="205.068" y="29.7539" width="32.875" height="33.854" filterUnits="userSpaceOnUse" color-interpolation-filters="sRGB">
<feFlood flood-opacity="0" result="BackgroundImageFix"/>
<feColorMatrix in="SourceAlpha" type="matrix" values="0 0 0 0 0 0 0 0 0 0 0 0 0 0 0 0 0 0 127 0" result="hardAlpha"/>
<feOffset dy="4"/>
<feGaussianBlur stdDeviation="2"/>
<feComposite in2="hardAlpha" operator="out"/>
<feColorMatrix type="matrix" values="0 0 0 0 0 0 0 0 0 0 0 0 0 0 0 0 0 0 0.25 0"/>
<feBlend mode="normal" in2="BackgroundImageFix" result="effect1_dropShadow_2018_611"/>
<feBlend mode="normal" in="SourceGraphic" in2="effect1_dropShadow_2018_611" result="shape"/>
</filter>
<filter id="filter6_d_2018_611" x="231.062" y="30.1709" width="31.7295" height="33.021" filterUnits="userSpaceOnUse" color-interpolation-filters="sRGB">
<feFlood flood-opacity="0" result="BackgroundImageFix"/>
<feColorMatrix in="SourceAlpha" type="matrix" values="0 0 0 0 0 0 0 0 0 0 0 0 0 0 0 0 0 0 127 0" result="hardAlpha"/>
<feOffset dy="4"/>
<feGaussianBlur stdDeviation="2"/>
<feComposite in2="hardAlpha" operator="out"/>
<feColorMatrix type="matrix" values="0 0 0 0 0 0 0 0 0 0 0 0 0 0 0 0 0 0 0.25 0"/>
<feBlend mode="normal" in2="BackgroundImageFix" result="effect1_dropShadow_2018_611"/>
<feBlend mode="normal" in="SourceGraphic" in2="effect1_dropShadow_2018_611" result="shape"/>
</filter>
<filter id="filter7_d_2018_611" x="257.494" y="29.7539" width="34" height="45.354" filterUnits="userSpaceOnUse" color-interpolation-filters="sRGB">
<feFlood flood-opacity="0" result="BackgroundImageFix"/>
<feColorMatrix in="SourceAlpha" type="matrix" values="0 0 0 0 0 0 0 0 0 0 0 0 0 0 0 0 0 0 127 0" result="hardAlpha"/>
<feOffset dy="4"/>
<feGaussianBlur stdDeviation="2"/>
<feComposite in2="hardAlpha" operator="out"/>
<feColorMatrix type="matrix" values="0 0 0 0 0 0 0 0 0 0 0 0 0 0 0 0 0 0 0.25 0"/>
<feBlend mode="normal" in2="BackgroundImageFix" result="effect1_dropShadow_2018_611"/>
<feBlend mode="normal" in="SourceGraphic" in2="effect1_dropShadow_2018_611" result="shape"/>
</filter>
<filter id="filter8_d_2018_611" x="286.241" y="48.1084" width="15.7705" height="15.396" filterUnits="userSpaceOnUse" color-interpolation-filters="sRGB">
<feFlood flood-opacity="0" result="BackgroundImageFix"/>
<feColorMatrix in="SourceAlpha" type="matrix" values="0 0 0 0 0 0 0 0 0 0 0 0 0 0 0 0 0 0 127 0" result="hardAlpha"/>
<feOffset dy="4"/>
<feGaussianBlur stdDeviation="2"/>
<feComposite in2="hardAlpha" operator="out"/>
<feColorMatrix type="matrix" values="0 0 0 0 0 0 0 0 0 0 0 0 0 0 0 0 0 0 0.25 0"/>
<feBlend mode="normal" in2="BackgroundImageFix" result="effect1_dropShadow_2018_611"/>
<feBlend mode="normal" in="SourceGraphic" in2="effect1_dropShadow_2018_611" result="shape"/>
</filter>
<filter id="filter9_d_2018_611" x="297.718" y="19.7749" width="15.7705" height="43.4165" filterUnits="userSpaceOnUse" color-interpolation-filters="sRGB">
<feFlood flood-opacity="0" result="BackgroundImageFix"/>
<feColorMatrix in="SourceAlpha" type="matrix" values="0 0 0 0 0 0 0 0 0 0 0 0 0 0 0 0 0 0 127 0" result="hardAlpha"/>
<feOffset dy="4"/>
<feGaussianBlur stdDeviation="2"/>
<feComposite in2="hardAlpha" operator="out"/>
<feColorMatrix type="matrix" values="0 0 0 0 0 0 0 0 0 0 0 0 0 0 0 0 0 0 0.25 0"/>
<feBlend mode="normal" in2="BackgroundImageFix" result="effect1_dropShadow_2018_611"/>
<feBlend mode="normal" in="SourceGraphic" in2="effect1_dropShadow_2018_611" result="shape"/>
</filter>
<filter id="filter10_d_2018_611" x="310.236" y="29.8164" width="31.833" height="33.375" filterUnits="userSpaceOnUse" color-interpolation-filters="sRGB">
<feFlood flood-opacity="0" result="BackgroundImageFix"/>
<feColorMatrix in="SourceAlpha" type="matrix" values="0 0 0 0 0 0 0 0 0 0 0 0 0 0 0 0 0 0 127 0" result="hardAlpha"/>
<feOffset dy="4"/>
<feGaussianBlur stdDeviation="2"/>
<feComposite in2="hardAlpha" operator="out"/>
<feColorMatrix type="matrix" values="0 0 0 0 0 0 0 0 0 0 0 0 0 0 0 0 0 0 0.25 0"/>
<feBlend mode="normal" in2="BackgroundImageFix" result="effect1_dropShadow_2018_611"/>
<feBlend mode="normal" in="SourceGraphic" in2="effect1_dropShadow_2018_611" result="shape"/>
</filter>
</defs>
</svg>
